<svg width="18" height="18" viewBox="0 0 18 18" fill="none" xmlns="http://www.w3.org/2000/svg">
<path d="M12.1048 1.93412C13.0482 1.93683 13.9521 2.29891 14.6192 2.94127C15.2862 3.58362 15.6622 4.45407 15.665 5.3625V12.2185C15.6622 13.127 15.2862 13.9974 14.6192 14.6398C13.9521 15.2821 13.0482 15.6442 12.1048 15.6469H4.98508C4.04172 15.6442 3.13779 15.2821 2.47073 14.6398C1.80366 13.9974 1.42766 13.127 1.42484 12.2185V5.3625C1.42766 4.45407 1.80366 3.58362 2.47073 2.94127C3.13779 2.29891 4.04172 1.93683 4.98508 1.93412H12.1048ZM12.1048 0.562988H4.98508C2.24377 0.562988 0.000976562 2.72271 0.000976562 5.3625V12.2185C0.000976562 14.8583 2.24377 17.018 4.98508 17.018H12.1048C14.8461 17.018 17.0889 14.8583 17.0889 12.2185V5.3625C17.0889 2.72271 14.8461 0.562988 12.1048 0.562988Z" fill="white"/>
<path d="M13.1733 5.36255C12.962 5.36255 12.7556 5.30223 12.5799 5.18922C12.4043 5.07622 12.2674 4.91559 12.1866 4.72767C12.1057 4.53975 12.0846 4.33296 12.1258 4.13347C12.167 3.93397 12.2687 3.75072 12.4181 3.60689C12.5674 3.46306 12.7577 3.36511 12.9649 3.32543C13.1721 3.28574 13.3868 3.30611 13.582 3.38395C13.7771 3.46179 13.9439 3.59361 14.0613 3.76273C14.1786 3.93186 14.2413 4.1307 14.2413 4.3341C14.2416 4.46924 14.2142 4.60311 14.1606 4.72802C14.107 4.85292 14.0284 4.96641 13.9291 5.06197C13.8299 5.15753 13.712 5.23327 13.5823 5.28485C13.4526 5.33643 13.3136 5.36284 13.1733 5.36255ZM8.54542 6.04793C9.10873 6.04793 9.65938 6.20878 10.1277 6.51014C10.5961 6.81151 10.9612 7.23985 11.1767 7.741C11.3923 8.24215 11.4487 8.7936 11.3388 9.32562C11.2289 9.85764 10.9577 10.3463 10.5593 10.7299C10.161 11.1135 9.65354 11.3747 9.10106 11.4805C8.54858 11.5863 7.97592 11.532 7.45549 11.3244C6.93507 11.1168 6.49026 10.7653 6.1773 10.3143C5.86435 9.86326 5.69731 9.333 5.69731 8.79056C5.69811 8.06341 5.99844 7.36626 6.53239 6.85208C7.06634 6.33791 7.7903 6.04871 8.54542 6.04793ZM8.54542 4.6768C7.7005 4.6768 6.87456 4.91806 6.17204 5.37009C5.46951 5.82212 4.92196 6.4646 4.59862 7.21629C4.27529 7.96798 4.19069 8.79512 4.35552 9.59311C4.52036 10.3911 4.92723 11.1241 5.52467 11.6994C6.12212 12.2747 6.88332 12.6665 7.712 12.8253C8.54068 12.984 9.39963 12.9025 10.1802 12.5912C10.9608 12.2798 11.628 11.7525 12.0974 11.076C12.5669 10.3995 12.8174 9.60418 12.8174 8.79056C12.8174 7.69952 12.3673 6.65317 11.5662 5.88169C10.765 5.11021 9.67842 4.6768 8.54542 4.6768Z" fill="white"/>
</svg>
