<svg width="18" height="18" viewBox="0 0 18 18" fill="none" xmlns="http://www.w3.org/2000/svg">
<path d="M9.16687 0.11084C4.37266 0.11084 0.485352 3.99641 0.485352 8.78849C0.485352 12.3409 2.62473 15.3936 5.68264 16.7378C5.65938 16.1335 5.67876 15.4052 5.83379 14.7466C6.00044 14.0416 6.94999 10.0165 6.94999 10.0165C6.94999 10.0165 6.67094 9.46255 6.67094 8.64515C6.67094 7.359 7.41507 6.39826 8.34523 6.39826C9.13587 6.39826 9.51568 6.99097 9.51568 7.69991C9.51568 8.49407 9.00797 9.6795 8.7483 10.7797C8.53126 11.7017 9.20951 12.4494 10.1203 12.4494C11.7636 12.4494 12.872 10.3381 12.872 7.8355C12.872 5.93339 11.5892 4.51165 9.25989 4.51165C6.6283 4.51165 4.98501 6.47574 4.98501 8.6684C4.98501 9.42381 5.2098 9.95842 5.55862 10.3691C5.71752 10.5589 5.74077 10.6364 5.68264 10.8533C5.64001 11.0121 5.54699 11.3957 5.50436 11.5506C5.44622 11.7714 5.26794 11.8489 5.07028 11.7676C3.85719 11.2717 3.29134 9.9468 3.29134 8.45145C3.29134 5.98762 5.37258 3.0318 9.49631 3.0318C12.81 3.0318 14.992 5.42977 14.992 8.00208C14.992 11.4073 13.0968 13.9486 10.3063 13.9486C9.36841 13.9486 8.48863 13.4411 8.18633 12.8678C8.18633 12.8678 7.68249 14.8667 7.57397 15.2541C7.39181 15.9243 7.03137 16.5906 6.70194 17.1136C7.50106 17.3492 8.32983 17.4693 9.163 17.47C13.9572 17.47 17.8445 13.5844 17.8445 8.79236C17.8445 4.00029 13.9611 0.11084 9.16687 0.11084Z" fill="white"/>
</svg>
