<svg width="61" height="61" viewBox="0 0 61 61" fill="none" xmlns="http://www.w3.org/2000/svg">
<path d="M60.9893 30.8838C60.9893 47.4523 47.5578 60.8838 30.9893 60.8838C14.4207 60.8838 0.989258 47.4523 0.989258 30.8838C0.989258 14.3152 14.4207 0.883789 30.9893 0.883789C47.5578 0.883789 60.9893 14.3152 60.9893 30.8838Z" fill="#6B77E5"/>
<path d="M28.4289 40.5268L38.4733 31.9951C38.6352 31.8576 38.765 31.687 38.8541 31.495C38.9431 31.303 38.9893 31.0943 38.9893 30.883C38.9893 30.6717 38.9431 30.4629 38.8541 30.271C38.765 30.079 38.6352 29.9084 38.4733 29.7709L28.4289 21.2391C27.4702 20.4249 25.9893 21.1 25.9893 22.3512V39.4172C25.9893 40.6684 27.4702 41.3435 28.4289 40.5268Z" fill="white"/>
</svg>
