<svg width="73" height="72" viewBox="0 0 73 72" fill="none" xmlns="http://www.w3.org/2000/svg">
<rect width="73" height="72" fill="#F5F5F5"/>
<g id="Homepage - 1" clip-path="url(#clip0_1_6)">
<rect width="1920" height="9954" transform="translate(-1051 -2474)" fill="white"/>
<g id="Services">
<g id="Content">
<g id="1">
<g id="2">
<rect width="385" height="173" transform="translate(-282.5 -30)" fill="#F4F4F4"/>
<g id="Content_2">
<g id="Icon">
<circle id="Ellipse 120" cx="36.5" cy="36" r="36" fill="#6B77E5"/>
<g id="Icon_2">
<path id="Vector" d="M53 52.5H20" stroke="white" stroke-width="2" stroke-linecap="round" stroke-linejoin="round"/>
<path id="Vector_2" d="M39.5 27V45C39.5 45.8284 40.1716 46.5 41 46.5H48.5C49.3284 46.5 50 45.8284 50 45V27C50 26.1716 49.3284 25.5 48.5 25.5H41C40.1716 25.5 39.5 26.1716 39.5 27Z" stroke="white" stroke-width="2" stroke-linecap="round" stroke-linejoin="round"/>
<path id="Vector_3" d="M32 18H24.5C23.6716 18 23 18.6716 23 19.5V45C23 45.8284 23.6716 46.5 24.5 46.5H32C32.8284 46.5 33.5 45.8284 33.5 45V19.5C33.5 18.6716 32.8284 18 32 18Z" stroke="white" stroke-width="2" stroke-linecap="round" stroke-linejoin="round"/>
</g>
</g>
</g>
</g>
</g>
</g>
</g>
</g>
<defs>
<clipPath id="clip0_1_6">
<rect width="1920" height="9954" fill="white" transform="translate(-1051 -2474)"/>
</clipPath>
</defs>
</svg>
