<svg width="17" height="17" viewBox="0 0 17 17" fill="none" xmlns="http://www.w3.org/2000/svg">
<path fill-rule="evenodd" clip-rule="evenodd" d="M0.951172 8.79034C0.951172 4.43374 4.4855 0.899414 8.8421 0.899414C13.1987 0.899414 16.733 4.43374 16.733 8.79034C16.733 13.1469 13.1987 16.6813 8.8421 16.6813C4.4855 16.6813 0.951172 13.1469 0.951172 8.79034ZM8.8421 2.39941C5.31393 2.39941 2.45117 5.26217 2.45117 8.79034C2.45117 12.3185 5.31393 15.1813 8.8421 15.1813C12.3703 15.1813 15.233 12.3185 15.233 8.79034C15.233 5.26217 12.3703 2.39941 8.8421 2.39941Z" fill="#40DDB6"/>
<path fill-rule="evenodd" clip-rule="evenodd" d="M8.8418 3.27979C9.25601 3.27979 9.5918 3.61557 9.5918 4.02979V8.63548H12.4123C12.8265 8.63548 13.1623 8.97127 13.1623 9.38548C13.1623 9.7997 12.8265 10.1355 12.4123 10.1355H8.8418C8.42758 10.1355 8.0918 9.7997 8.0918 9.38548V4.02979C8.0918 3.61557 8.42758 3.27979 8.8418 3.27979Z" fill="#40DDB6"/>
</svg>
