<svg width="19" height="16" viewBox="0 0 19 16" fill="none" xmlns="http://www.w3.org/2000/svg">
<path d="M18.4853 2.2023C17.7985 2.50071 17.0718 2.69731 16.3283 2.78588C17.1097 2.32831 17.6973 1.60138 17.981 0.741431C17.2422 1.17343 16.4353 1.47654 15.5948 1.63778C15.2409 1.26686 14.8152 0.971776 14.3437 0.770474C13.8722 0.569173 13.3646 0.465856 12.852 0.466803C10.7762 0.466803 9.09643 2.1222 9.09643 4.16283C9.09496 4.44667 9.12748 4.72967 9.19331 5.00578C7.70486 4.93601 6.24737 4.5563 4.91407 3.89097C3.58078 3.22564 2.40104 2.28932 1.45034 1.14193C1.11681 1.7042 0.940425 2.34573 0.939612 2.99948C0.939612 4.28107 1.60825 5.41391 2.61789 6.07759C2.01971 6.0634 1.43379 5.90508 0.909861 5.61607V5.66184C0.909861 7.45455 2.20671 8.94592 3.92313 9.28539C3.60036 9.37144 3.26775 9.41503 2.93371 9.41508C2.69669 9.41549 2.4602 9.3925 2.22769 9.34642C2.70486 10.8149 4.09363 11.8829 5.73873 11.9134C4.40197 12.9436 2.76078 13.5004 1.07311 13.4963C0.773545 13.4959 0.474258 13.4781 0.176758 13.4429C1.89363 14.5393 3.88936 15.1191 5.92639 15.1136C12.8439 15.1136 16.6231 9.47992 16.6231 4.59384C16.6231 4.43364 16.6189 4.27344 16.6113 4.11706C17.3448 3.59529 17.9794 2.94688 18.4853 2.2023Z" fill="white"/>
</svg>
