<svg width="22" height="33" viewBox="0 0 22 33" fill="none" xmlns="http://www.w3.org/2000/svg">
<g id="Group">
<path id="Vector" d="M18.9336 0.737549H3.02956C1.72668 0.737549 0.670898 1.7933 0.670898 3.09618V30.0073C0.670898 31.3102 1.72668 32.366 3.02956 32.366H18.9336C20.2365 32.366 21.2923 31.3102 21.2923 30.0073V3.09618C21.2923 1.81576 20.2141 0.737549 18.9336 0.737549Z" fill="white"/>
<path id="Vector_2" d="M20.1466 4.534H1.79395V26.7278H20.1466V4.534Z" fill="#404040"/>
<g id="Group_2">
<g id="Group_3">
<path id="Vector_3" d="M14.7333 2.15247H7.20807C6.91605 2.15247 6.64648 2.39956 6.64648 2.71405C6.64648 3.02854 6.89358 3.27564 7.20807 3.27564H14.7333C15.0253 3.27564 15.2949 3.02854 15.2949 2.71405C15.2949 2.42203 15.0478 2.15247 14.7333 2.15247Z" fill="#6639A6"/>
</g>
</g>
<path id="Vector_4" d="M9.18457 29.4009C9.18457 28.4125 9.99326 27.5814 10.9816 27.5814C11.97 27.5814 12.8012 28.39 12.8012 29.4009C12.8012 30.3893 11.9925 31.1979 10.9816 31.1979C9.99326 31.2204 9.18457 30.4117 9.18457 29.4009Z" fill="#6639A6"/>
</g>
</svg>
