<svg width="199" height="30" viewBox="0 0 199 30" fill="none" xmlns="http://www.w3.org/2000/svg">
<path d="M194.207 10.6886C194.74 9.83857 195.423 9.16357 196.257 8.66357C197.107 8.16357 198.023 7.91357 199.007 7.91357V12.4886H197.782C196.648 12.4886 195.765 12.7302 195.132 13.2136C194.515 13.6969 194.207 14.5136 194.207 15.6636V22.0136H189.932V8.06357H194.207V10.6886Z" fill="#37393F"/>
<path d="M178.288 7.88867C179.354 7.88867 180.271 8.13034 181.038 8.61367C181.804 9.097 182.371 9.75534 182.738 10.5887V8.06367H186.988V22.0137H182.738V19.4887C182.371 20.322 181.804 20.9803 181.038 21.4637C180.271 21.947 179.354 22.1887 178.288 22.1887C177.138 22.1887 176.104 21.9053 175.188 21.3387C174.288 20.7553 173.571 19.922 173.038 18.8387C172.521 17.7553 172.263 16.4887 172.263 15.0387C172.263 13.572 172.521 12.3053 173.038 11.2387C173.571 10.1553 174.288 9.33034 175.188 8.76367C176.104 8.18034 177.138 7.88867 178.288 7.88867ZM179.663 11.6387C178.746 11.6387 178.004 11.9387 177.438 12.5387C176.888 13.1387 176.613 13.972 176.613 15.0387C176.613 16.1053 176.888 16.9387 177.438 17.5387C178.004 18.1387 178.746 18.4387 179.663 18.4387C180.563 18.4387 181.296 18.1303 181.863 17.5137C182.446 16.897 182.738 16.072 182.738 15.0387C182.738 13.9887 182.446 13.1637 181.863 12.5637C181.296 11.947 180.563 11.6387 179.663 11.6387Z" fill="#37393F"/>
<path d="M170.037 3.51367V22.0137H165.762V3.51367H170.037Z" fill="#6B77E5"/>
<path d="M162.81 3.51367V22.0137H158.535V3.51367H162.81Z" fill="#6B77E5"/>
<path d="M149.093 7.88867C150.476 7.88867 151.709 8.18034 152.793 8.76367C153.893 9.33034 154.751 10.1553 155.368 11.2387C156.001 12.322 156.318 13.5887 156.318 15.0387C156.318 16.4887 156.001 17.7553 155.368 18.8387C154.751 19.922 153.893 20.7553 152.793 21.3387C151.709 21.9053 150.476 22.1887 149.093 22.1887C147.709 22.1887 146.468 21.9053 145.368 21.3387C144.268 20.7553 143.401 19.922 142.768 18.8387C142.151 17.7553 141.843 16.4887 141.843 15.0387C141.843 13.5887 142.151 12.322 142.768 11.2387C143.401 10.1553 144.268 9.33034 145.368 8.76367C146.468 8.18034 147.709 7.88867 149.093 7.88867ZM149.093 11.5887C148.276 11.5887 147.584 11.8887 147.018 12.4887C146.468 13.072 146.193 13.922 146.193 15.0387C146.193 16.1553 146.468 17.0053 147.018 17.5887C147.584 18.172 148.276 18.4637 149.093 18.4637C149.909 18.4637 150.593 18.172 151.143 17.5887C151.693 17.0053 151.968 16.1553 151.968 15.0387C151.968 13.922 151.693 13.072 151.143 12.4887C150.593 11.8887 149.909 11.5887 149.093 11.5887Z" fill="#37393F"/>
<path d="M131.722 4.16357C133.972 4.16357 135.83 4.75524 137.297 5.93858C138.78 7.12191 139.739 8.72191 140.172 10.7386H135.647C135.314 9.92191 134.797 9.28024 134.097 8.81358C133.414 8.34691 132.597 8.11357 131.647 8.11357C130.397 8.11357 129.389 8.57191 128.622 9.48857C127.855 10.4052 127.472 11.6302 127.472 13.1636C127.472 14.6969 127.855 15.9219 128.622 16.8386C129.389 17.7386 130.397 18.1886 131.647 18.1886C132.597 18.1886 133.414 17.9552 134.097 17.4886C134.797 17.0219 135.314 16.3886 135.647 15.5886H140.172C139.739 17.5886 138.78 19.1886 137.297 20.3886C135.83 21.5719 133.972 22.1636 131.722 22.1636C130.005 22.1636 128.497 21.7886 127.197 21.0386C125.897 20.2719 124.889 19.2052 124.172 17.8386C123.472 16.4719 123.122 14.9136 123.122 13.1636C123.122 11.4136 123.472 9.85524 124.172 8.48857C124.889 7.12191 125.897 6.06358 127.197 5.31357C128.497 4.54691 130.005 4.16357 131.722 4.16357Z" fill="#37393F"/>
<path d="M121.418 14.6637C121.418 15.0137 121.377 15.397 121.293 15.8137H111.618C111.668 16.8637 111.935 17.622 112.418 18.0887C112.902 18.5387 113.518 18.7637 114.268 18.7637C114.902 18.7637 115.427 18.6053 115.843 18.2887C116.26 17.972 116.535 17.5637 116.668 17.0637H121.193C121.01 18.047 120.61 18.9303 119.993 19.7137C119.377 20.4803 118.593 21.0887 117.643 21.5387C116.693 21.972 115.635 22.1887 114.468 22.1887C113.102 22.1887 111.885 21.9053 110.818 21.3387C109.768 20.7553 108.943 19.922 108.343 18.8387C107.743 17.7553 107.443 16.4887 107.443 15.0387C107.443 13.572 107.735 12.3053 108.318 11.2387C108.918 10.1553 109.752 9.33034 110.818 8.76367C111.885 8.18034 113.102 7.88867 114.468 7.88867C115.852 7.88867 117.068 8.172 118.118 8.73867C119.168 9.30534 119.977 10.1053 120.543 11.1387C121.127 12.1553 121.418 13.3303 121.418 14.6637ZM117.093 14.0137C117.11 13.097 116.86 12.4137 116.343 11.9637C115.843 11.497 115.218 11.2637 114.468 11.2637C113.685 11.2637 113.035 11.497 112.518 11.9637C112.002 12.4303 111.71 13.1137 111.643 14.0137H117.093Z" fill="#37393F"/>
<path d="M105.766 18.3387V22.0137H103.841C102.208 22.0137 100.933 21.6137 100.016 20.8137C99.116 19.997 98.666 18.6553 98.666 16.7887V11.6637H96.791V8.06367H98.666V4.63867H102.941V8.06367H105.741V11.6637H102.941V16.8637C102.941 17.4137 103.049 17.797 103.266 18.0137C103.499 18.2303 103.883 18.3387 104.416 18.3387H105.766Z" fill="#37393F"/>
<path d="M90.2393 4.13867C90.2393 3.48867 90.4726 2.95534 90.9393 2.53867C91.4059 2.10534 92.0226 1.88867 92.7893 1.88867C93.5559 1.88867 94.1726 2.10534 94.6393 2.53867C95.1059 2.95534 95.3393 3.48867 95.3393 4.13867C95.3393 4.77201 95.1059 5.30534 94.6393 5.73867C94.1726 6.15534 93.5559 6.36367 92.7893 6.36367C92.0226 6.36367 91.4059 6.15534 90.9393 5.73867C90.4726 5.30534 90.2393 4.77201 90.2393 4.13867ZM94.9143 8.06367V22.0137H90.6393V8.06367H94.9143Z" fill="#37393F"/>
<path d="M82.5951 7.91367C84.1951 7.91367 85.4618 8.44701 86.3951 9.51367C87.3451 10.5803 87.8201 12.047 87.8201 13.9137V22.0137H83.5451V14.4137C83.5451 13.4803 83.2951 12.7553 82.7951 12.2387C82.3118 11.7053 81.6618 11.4387 80.8451 11.4387C79.9785 11.4387 79.2868 11.7137 78.7701 12.2637C78.2701 12.8137 78.0201 13.597 78.0201 14.6137V22.0137H73.7451V3.51367H78.0201V10.6137C78.4201 9.78034 79.0118 9.122 79.7951 8.63867C80.5951 8.15534 81.5285 7.91367 82.5951 7.91367Z" fill="#37393F"/>
<path d="M71.5004 4.33887L67.2754 22.0139H61.9754L59.1504 10.1889L56.3004 22.0139H51.0004L46.7754 4.33887H51.4254L53.7004 17.1389L56.8004 4.33887H61.4754L64.5754 17.1389L66.8754 4.33887H71.5004Z" fill="#37393F"/>
<path d="M14.3756 0.0136719H8.49649L25.2608 29.0137L28.2003 23.9289L14.3756 0.0136719Z" fill="#40DDB6"/>
<path d="M5.8791 0.0136719H0L16.5506 28.6436L19.4084 23.4187L5.8791 0.0136719Z" fill="#40DDB6"/>
<path d="M32.5307 16.7085L36.3049 10.1766H30.4274L29.5911 11.6237L25.433 4.43328H39.62L42.1706 0.0136719H17L29.5945 21.7999L32.5324 16.7118L32.5307 16.7085Z" fill="#6B77E5"/>
</svg>
